<?xml version="1.0" encoding="UTF-8" standalone="no"?><svg xmlns="http://www.w3.org/2000/svg" xmlns:xlink="http://www.w3.org/1999/xlink" contentScriptType="application/ecmascript" contentStyleType="text/css" height="1190px" preserveAspectRatio="none" style="width:1166px;height:1190px;" version="1.1" viewBox="0 0 1166 1190" width="1166px" zoomAndPan="magnify"><defs><filter height="300%" id="f1tychtetkszcw" width="300%" x="-1" y="-1"><feGaussianBlur result="blurOut" stdDeviation="2.0"/><feColorMatrix in="blurOut" result="blurOut2" type="matrix" values="0 0 0 0 0 0 0 0 0 0 0 0 0 0 0 0 0 0 .4 0"/><feOffset dx="4.0" dy="4.0" in="blurOut2" result="blurOut3"/><feBlend in="SourceGraphic" in2="blurOut3" mode="normal"/></filter></defs><g><ellipse cx="1086.5" cy="399.5" fill="#000000" filter="url(#f1tychtetkszcw)" rx="10" ry="10" style="stroke: none; stroke-width: 1.0;"/><rect fill="#FEFECE" filter="url(#f1tychtetkszcw)" height="162.0156" rx="12.5" ry="12.5" style="stroke: #A80036; stroke-width: 1.5;" width="293" x="468" y="851"/><line style="stroke: #A80036; stroke-width: 1.5;" x1="468" x2="761" y1="877.2969" y2="877.2969"/><text fill="#000000" font-family="sans-serif" font-size="14" lengthAdjust="spacingAndGlyphs" textLength="67" x="581" y="868.9951">OBSERVE</text><text fill="#000000" font-family="sans-serif" font-size="12" lengthAdjust="spacingAndGlyphs" textLength="109" x="473" y="893.4355">+ click on canvas</text><text fill="#000000" font-family="sans-serif" font-size="12" lengthAdjust="spacingAndGlyphs" textLength="93" x="473" y="907.4043">+ mouse scroll</text><text fill="#000000" font-family="sans-serif" font-size="12" lengthAdjust="spacingAndGlyphs" textLength="74" x="473" y="921.373">+ home key</text><text fill="#000000" font-family="sans-serif" font-size="12" lengthAdjust="spacingAndGlyphs" textLength="226" x="473" y="935.3418">+ to OB_MENU: right click on canvas</text><text fill="#000000" font-family="sans-serif" font-size="12" lengthAdjust="spacingAndGlyphs" textLength="273" x="473" y="949.3105">+ to CANVAS_MOVE: mouse down and move</text><text fill="#000000" font-family="sans-serif" font-size="12" lengthAdjust="spacingAndGlyphs" textLength="180" x="473" y="963.2793">+ to TREE_EDIT: click on tree</text><text fill="#000000" font-family="sans-serif" font-size="12" lengthAdjust="spacingAndGlyphs" textLength="200" x="473" y="977.248">+ to TREE_EDIT: click on expand</text><text fill="#000000" font-family="sans-serif" font-size="12" lengthAdjust="spacingAndGlyphs" textLength="160" x="473" y="991.2168">+ to TREE_EDIT: undo key</text><text fill="#000000" font-family="sans-serif" font-size="12" lengthAdjust="spacingAndGlyphs" textLength="157" x="473" y="1005.1855">+ to TREE_EDIT: redo key</text><rect fill="#FEFECE" filter="url(#f1tychtetkszcw)" height="106.1406" rx="12.5" ry="12.5" style="stroke: #A80036; stroke-width: 1.5;" width="275" x="277" y="1073"/><line style="stroke: #A80036; stroke-width: 1.5;" x1="277" x2="552" y1="1099.2969" y2="1099.2969"/><text fill="#000000" font-family="sans-serif" font-size="14" lengthAdjust="spacingAndGlyphs" textLength="69" x="380" y="1090.9951">OB_MENU</text><text fill="#000000" font-family="sans-serif" font-size="12" lengthAdjust="spacingAndGlyphs" textLength="186" x="282" y="1115.4355">+ to OBSERVE: click backdrop</text><text fill="#000000" font-family="sans-serif" font-size="12" lengthAdjust="spacingAndGlyphs" textLength="255" x="282" y="1129.4043">+ to OBSERVE: click item: reposition tree</text><text fill="#000000" font-family="sans-serif" font-size="12" lengthAdjust="spacingAndGlyphs" textLength="143" x="282" y="1143.373">+ to OBSERVE: esc key</text><text fill="#000000" font-family="sans-serif" font-size="12" lengthAdjust="spacingAndGlyphs" textLength="201" x="282" y="1157.3418">+ to TREE_EDIT: click item: undo</text><text fill="#000000" font-family="sans-serif" font-size="12" lengthAdjust="spacingAndGlyphs" textLength="198" x="282" y="1171.3105">+ to TREE_EDIT: click item: redo</text><rect fill="#FEFECE" filter="url(#f1tychtetkszcw)" height="64.2344" rx="12.5" ry="12.5" style="stroke: #A80036; stroke-width: 1.5;" width="178" x="587.5" y="1094"/><line style="stroke: #A80036; stroke-width: 1.5;" x1="587.5" x2="765.5" y1="1120.2969" y2="1120.2969"/><text fill="#000000" font-family="sans-serif" font-size="14" lengthAdjust="spacingAndGlyphs" textLength="104" x="624.5" y="1111.9951">CANVAS_MOVE</text><text fill="#000000" font-family="sans-serif" font-size="12" lengthAdjust="spacingAndGlyphs" textLength="93" x="592.5" y="1136.4355">+ mouse move</text><text fill="#000000" font-family="sans-serif" font-size="12" lengthAdjust="spacingAndGlyphs" textLength="158" x="592.5" y="1150.4043">+ to OBSERVE: mouse up</text><rect fill="#FEFECE" filter="url(#f1tychtetkszcw)" height="782.6406" rx="12.5" ry="12.5" style="stroke: #A80036; stroke-width: 1.5;" width="1017" x="6" y="8"/><rect fill="#FFFFFF" height="452" rx="12.5" ry="12.5" style="stroke: #FFFFFF; stroke-width: 1.0;" width="1011" x="9" y="335.6406"/><line style="stroke: #A80036; stroke-width: 1.5;" x1="6" x2="1023" y1="332.6406" y2="332.6406"/><line style="stroke: #A80036; stroke-width: 1.5;" x1="6" x2="1023" y1="34.2969" y2="34.2969"/><text fill="#000000" font-family="sans-serif" font-size="14" lengthAdjust="spacingAndGlyphs" textLength="76" x="476.5" y="25.9951">TREE_EDIT</text><text fill="#000000" font-family="sans-serif" font-size="12" lengthAdjust="spacingAndGlyphs" textLength="81" x="11" y="45.4355">+ arrow keys</text><text fill="#000000" font-family="sans-serif" font-size="12" lengthAdjust="spacingAndGlyphs" textLength="91" x="11" y="59.4043">+ click on tree</text><text fill="#000000" font-family="sans-serif" font-size="12" lengthAdjust="spacingAndGlyphs" textLength="91" x="11" y="73.373">+ click expand</text><text fill="#000000" font-family="sans-serif" font-size="12" lengthAdjust="spacingAndGlyphs" textLength="183" x="11" y="87.3418">+ create tree: tab, insert key</text><text fill="#000000" font-family="sans-serif" font-size="12" lengthAdjust="spacingAndGlyphs" textLength="152" x="11" y="101.3105">+ create tree: enter key</text><text fill="#000000" font-family="sans-serif" font-size="12" lengthAdjust="spacingAndGlyphs" textLength="144" x="11" y="115.2793">+ edit tree: backspace</text><text fill="#000000" font-family="sans-serif" font-size="12" lengthAdjust="spacingAndGlyphs" textLength="136" x="11" y="129.248">+ edit tree: home key</text><text fill="#000000" font-family="sans-serif" font-size="12" lengthAdjust="spacingAndGlyphs" textLength="133" x="11" y="143.2168">+ edit tree: undo key</text><text fill="#000000" font-family="sans-serif" font-size="12" lengthAdjust="spacingAndGlyphs" textLength="130" x="11" y="157.1855">+ edit tree: redo key</text><text fill="#000000" font-family="sans-serif" font-size="12" lengthAdjust="spacingAndGlyphs" textLength="121" x="11" y="171.1543">+ edit tree: cut key</text><text fill="#000000" font-family="sans-serif" font-size="12" lengthAdjust="spacingAndGlyphs" textLength="130" x="11" y="185.123">+ edit tree: copy key</text><text fill="#000000" font-family="sans-serif" font-size="12" lengthAdjust="spacingAndGlyphs" textLength="137" x="11" y="199.0918">+ edit tree: paste key</text><text fill="#000000" font-family="sans-serif" font-size="12" lengthAdjust="spacingAndGlyphs" textLength="171" x="11" y="213.0605">+ to OBSERVE: click canvas</text><text fill="#000000" font-family="sans-serif" font-size="12" lengthAdjust="spacingAndGlyphs" textLength="184" x="11" y="227.0293">+ to OBSERVE: input text blur</text><text fill="#000000" font-family="sans-serif" font-size="12" lengthAdjust="spacingAndGlyphs" textLength="206" x="11" y="240.998">+ to TE_MENU: right click on tree</text><text fill="#000000" font-family="sans-serif" font-size="12" lengthAdjust="spacingAndGlyphs" textLength="344" x="11" y="254.9668">+ to TE_CANVAS_MOVE: mouse down and move on root</text><text fill="#000000" font-family="sans-serif" font-size="12" lengthAdjust="spacingAndGlyphs" textLength="370" x="11" y="268.9355">+ to TE_ATTACH_MOVE: mouse down and move on non-root</text><text fill="#000000" font-family="sans-serif" font-size="12" lengthAdjust="spacingAndGlyphs" textLength="369" x="11" y="282.9043">+ to TE_INPUT_TEXT: !pluginBinded &amp;&amp; double click on tree</text><text fill="#000000" font-family="sans-serif" font-size="12" lengthAdjust="spacingAndGlyphs" textLength="305" x="11" y="296.873">+ to TE_INPUT_TEXT: !pluginBinded &amp;&amp; input text</text><text fill="#000000" font-family="sans-serif" font-size="12" lengthAdjust="spacingAndGlyphs" textLength="222" x="11" y="310.8418">+ to TE_PLUGIN_UI: click bind plugin</text><text fill="#000000" font-family="sans-serif" font-size="12" lengthAdjust="spacingAndGlyphs" textLength="305" x="11" y="324.8105">+ to TE_PLUGIN_UI: pluginBinded &amp;&amp; double click</text><ellipse cx="484.5" cy="355.6406" fill="#000000" filter="url(#f1tychtetkszcw)" rx="10" ry="10" style="stroke: none; stroke-width: 1.0;"/><rect fill="#FEFECE" filter="url(#f1tychtetkszcw)" height="162.0156" rx="12.5" ry="12.5" style="stroke: #A80036; stroke-width: 1.5;" width="353" x="17" y="401.6406"/><line style="stroke: #A80036; stroke-width: 1.5;" x1="17" x2="370" y1="427.9375" y2="427.9375"/><text fill="#000000" font-family="sans-serif" font-size="14" lengthAdjust="spacingAndGlyphs" textLength="66" x="160.5" y="419.6357">TE_MENU</text><text fill="#000000" font-family="sans-serif" font-size="12" lengthAdjust="spacingAndGlyphs" textLength="150" x="22" y="444.0762">+ to TREE_EDIT: esc key</text><text fill="#000000" font-family="sans-serif" font-size="12" lengthAdjust="spacingAndGlyphs" textLength="193" x="22" y="458.0449">+ to TREE_EDIT: click backdrop</text><text fill="#000000" font-family="sans-serif" font-size="12" lengthAdjust="spacingAndGlyphs" textLength="322" x="22" y="472.0137">+ to TREE_EDIT: create tree: click item: create child</text><text fill="#000000" font-family="sans-serif" font-size="12" lengthAdjust="spacingAndGlyphs" textLength="333" x="22" y="485.9824">+ to TREE_EDIT: create tree: click item: create sibling</text><text fill="#000000" font-family="sans-serif" font-size="12" lengthAdjust="spacingAndGlyphs" textLength="271" x="22" y="499.9512">+ to TREE_EDIT: edit tree: click item: delete</text><text fill="#000000" font-family="sans-serif" font-size="12" lengthAdjust="spacingAndGlyphs" textLength="251" x="22" y="513.9199">+ to TREE_EDIT: edit tree: click item: cut</text><text fill="#000000" font-family="sans-serif" font-size="12" lengthAdjust="spacingAndGlyphs" textLength="260" x="22" y="527.8887">+ to TREE_EDIT: edit tree: click item: copy</text><text fill="#000000" font-family="sans-serif" font-size="12" lengthAdjust="spacingAndGlyphs" textLength="267" x="22" y="541.8574">+ to TREE_EDIT: edit tree: click item: paste</text><text fill="#000000" font-family="sans-serif" font-size="12" lengthAdjust="spacingAndGlyphs" textLength="211" x="22" y="555.8262">+ to TE_IMPORT: click item: import</text><rect fill="#FEFECE" filter="url(#f1tychtetkszcw)" height="50.2656" rx="12.5" ry="12.5" style="stroke: #A80036; stroke-width: 1.5;" width="185" x="309" y="634.6406"/><line style="stroke: #A80036; stroke-width: 1.5;" x1="309" x2="494" y1="660.9375" y2="660.9375"/><text fill="#000000" font-family="sans-serif" font-size="14" lengthAdjust="spacingAndGlyphs" textLength="129" x="337" y="652.6357">TE_CANVAS_MOVE</text><text fill="#000000" font-family="sans-serif" font-size="12" lengthAdjust="spacingAndGlyphs" textLength="165" x="314" y="677.0762">+ to TREE_EDIT: mouse up</text><rect fill="#FEFECE" filter="url(#f1tychtetkszcw)" height="120.1094" rx="12.5" ry="12.5" style="stroke: #A80036; stroke-width: 1.5;" width="261" x="512" y="599.6406"/><line style="stroke: #A80036; stroke-width: 1.5;" x1="512" x2="773" y1="625.9375" y2="625.9375"/><text fill="#000000" font-family="sans-serif" font-size="14" lengthAdjust="spacingAndGlyphs" textLength="129" x="578" y="617.6357">TE_ATTACH_MOVE</text><text fill="#000000" font-family="sans-serif" font-size="12" lengthAdjust="spacingAndGlyphs" textLength="233" x="517" y="642.0762">+ to TREE_EDIT: mouse up on canvas</text><text fill="#000000" font-family="sans-serif" font-size="12" lengthAdjust="spacingAndGlyphs" textLength="211" x="517" y="656.0449">+ mouseup on tree: insert before</text><text fill="#000000" font-family="sans-serif" font-size="12" lengthAdjust="spacingAndGlyphs" textLength="230" x="517" y="670.0137">+ mouseup on tree: append as child</text><text fill="#000000" font-family="sans-serif" font-size="12" lengthAdjust="spacingAndGlyphs" textLength="241" x="517" y="683.9824">+ mouseup on tree: append as sibling</text><text fill="#000000" font-family="sans-serif" font-size="12" lengthAdjust="spacingAndGlyphs" textLength="169" x="517" y="697.9512">+ mouseup on tree: invalid</text><text fill="#000000" font-family="sans-serif" font-size="12" lengthAdjust="spacingAndGlyphs" textLength="227" x="517" y="711.9199">+ to TE_ATTACH_MOVE: mouse move</text><rect fill="#FEFECE" filter="url(#f1tychtetkszcw)" height="92.1719" rx="12.5" ry="12.5" style="stroke: #A80036; stroke-width: 1.5;" width="218" x="512.5" y="436.6406"/><line style="stroke: #A80036; stroke-width: 1.5;" x1="512.5" x2="730.5" y1="462.9375" y2="462.9375"/><text fill="#000000" font-family="sans-serif" font-size="14" lengthAdjust="spacingAndGlyphs" textLength="109" x="567" y="454.6357">TE_INPUT_TEXT</text><text fill="#000000" font-family="sans-serif" font-size="12" lengthAdjust="spacingAndGlyphs" textLength="150" x="517.5" y="479.0762">+ to TREE_EDIT: esc key</text><text fill="#000000" font-family="sans-serif" font-size="12" lengthAdjust="spacingAndGlyphs" textLength="162" x="517.5" y="493.0449">+ to TREE_EDIT: enter key</text><text fill="#000000" font-family="sans-serif" font-size="12" lengthAdjust="spacingAndGlyphs" textLength="198" x="517.5" y="507.0137">+ to TREE_EDIT: click on canvas</text><text fill="#000000" font-family="sans-serif" font-size="12" lengthAdjust="spacingAndGlyphs" textLength="191" x="517.5" y="520.9824">+ to TREE_EDIT: input text blur</text><rect fill="#FEFECE" filter="url(#f1tychtetkszcw)" height="64.2344" rx="12.5" ry="12.5" style="stroke: #A80036; stroke-width: 1.5;" width="218" x="748.5" y="450.6406"/><line style="stroke: #A80036; stroke-width: 1.5;" x1="748.5" x2="966.5" y1="476.9375" y2="476.9375"/><text fill="#000000" font-family="sans-serif" font-size="14" lengthAdjust="spacingAndGlyphs" textLength="95" x="810" y="468.6357">TE_PLUGIN_UI</text><text fill="#000000" font-family="sans-serif" font-size="12" lengthAdjust="spacingAndGlyphs" textLength="145" x="753.5" y="493.0762">operate inside PluginUI</text><text fill="#000000" font-family="sans-serif" font-size="12" lengthAdjust="spacingAndGlyphs" textLength="198" x="753.5" y="507.0449">+ to TREE_EDIT: click on canvas</text><ellipse cx="521.5" cy="765.6406" fill="none" filter="url(#f1tychtetkszcw)" rx="10" ry="10" style="stroke: #000000; stroke-width: 1.0;"/><ellipse cx="522" cy="766.1406" fill="#000000" rx="6" ry="6" style="stroke: none; stroke-width: 1.0;"/><rect fill="#FEFECE" filter="url(#f1tychtetkszcw)" height="64.2344" rx="12.5" ry="12.5" style="stroke: #A80036; stroke-width: 1.5;" width="195" x="96" y="627.6406"/><line style="stroke: #A80036; stroke-width: 1.5;" x1="96" x2="291" y1="653.9375" y2="653.9375"/><text fill="#000000" font-family="sans-serif" font-size="14" lengthAdjust="spacingAndGlyphs" textLength="79" x="154" y="645.6357">TE_IMPORT</text><text fill="#000000" font-family="sans-serif" font-size="12" lengthAdjust="spacingAndGlyphs" textLength="149" x="101" y="670.0762">+ to TREE_EDIT: click ok</text><text fill="#000000" font-family="sans-serif" font-size="12" lengthAdjust="spacingAndGlyphs" textLength="175" x="101" y="684.0449">+ to TREE_EDIT: click cancel</text><!--link *start*TREE_EDIT to TE_MENU--><path d="M475.472,360.5186 C458.394,367.8546 419.106,384.7306 375.117,403.6266 " fill="none" id="*start*TREE_EDIT-TE_MENU" style="stroke: #A80036; stroke-width: 1.0;"/><polygon fill="#A80036" points="370.29,405.6996,380.1381,405.8213,374.8838,403.7255,376.9796,398.4712,370.29,405.6996" style="stroke: #A80036; stroke-width: 1.0;"/><!--link *start*TREE_EDIT to TE_CANVAS_MOVE--><path d="M481.607,365.5746 C478.701,374.6316 474.142,389.0666 470.5,401.6406 C446.688,483.8436 421.207,581.6536 408.941,629.4376 " fill="none" id="*start*TREE_EDIT-TE_CANVAS_MOVE" style="stroke: #A80036; stroke-width: 1.0;"/><polygon fill="#A80036" points="407.654,634.4586,413.7657,626.7355,408.8969,629.6156,406.0168,624.7468,407.654,634.4586" style="stroke: #A80036; stroke-width: 1.0;"/><!--link *start*TREE_EDIT to TE_ATTACH_MOVE--><path d="M482.78,365.7216 C477.505,396.2096 464.182,496.7496 503.5,563.6406 C510.492,575.5356 519.631,586.2736 529.888,595.8766 " fill="none" id="*start*TREE_EDIT-TE_ATTACH_MOVE" style="stroke: #A80036; stroke-width: 1.0;"/><polygon fill="#A80036" points="533.715,599.3636,529.7563,590.3454,530.019,595.9961,524.3683,596.2589,533.715,599.3636" style="stroke: #A80036; stroke-width: 1.0;"/><!--link *start*TREE_EDIT to TE_INPUT_TEXT--><path d="M491.482,363.0116 C505.624,375.9146 538.801,406.1856 568.099,432.9176 " fill="none" id="*start*TREE_EDIT-TE_INPUT_TEXT" style="stroke: #A80036; stroke-width: 1.0;"/><polygon fill="#A80036" points="572.02,436.4946,568.0667,427.474,568.3261,433.1249,562.6752,433.3843,572.02,436.4946" style="stroke: #A80036; stroke-width: 1.0;"/><!--link *start*TREE_EDIT to TE_PLUGIN_UI--><path d="M494.64,356.9206 C529.841,358.2016 649.514,365.1526 739.5,401.6406 C767.024,412.8016 794.672,431.0766 816.28,447.3446 " fill="none" id="*start*TREE_EDIT-TE_PLUGIN_UI" style="stroke: #A80036; stroke-width: 1.0;"/><polygon fill="#A80036" points="820.519,450.5686,815.7771,441.9365,816.5393,447.5417,810.9341,448.3039,820.519,450.5686" style="stroke: #A80036; stroke-width: 1.0;"/><!--link TE_MENU to *end*TREE_EDIT--><path d="M106.59,563.6496 C98.464,574.9246 91.4362,587.0086 86.5,599.6406 C67.0881,649.3156 50.7806,680.0355 86.5,719.6406 C115.2437,751.5112 432.561,762.1881 506.269,764.2469 " fill="none" id="TE_MENU-*end*TREE_EDIT" style="stroke: #A80036; stroke-width: 1.0;"/><polygon fill="#A80036" points="511.525,764.3905,502.6369,760.1477,506.5268,764.2548,502.4197,768.1448,511.525,764.3905" style="stroke: #A80036; stroke-width: 1.0;"/><!--link TE_MENU to TE_IMPORT--><path d="M193.5,563.7146 C193.5,584.2676 193.5,605.3726 193.5,622.4466 " fill="none" id="TE_MENU-TE_IMPORT" style="stroke: #A80036; stroke-width: 1.0;"/><polygon fill="#A80036" points="193.5,627.6106,197.5,618.6106,193.5,622.6106,189.5,618.6106,193.5,627.6106" style="stroke: #A80036; stroke-width: 1.0;"/><!--link TE_CANVAS_MOVE to *end*TREE_EDIT--><path d="M429.332,684.7617 C455.079,707.0761 492.047,739.115 510.354,754.9805 " fill="none" id="TE_CANVAS_MOVE-*end*TREE_EDIT" style="stroke: #A80036; stroke-width: 1.0;"/><polygon fill="#A80036" points="514.174,758.2915,509.9938,749.3738,510.396,755.0163,504.7535,755.4186,514.174,758.2915" style="stroke: #A80036; stroke-width: 1.0;"/><!--link TE_ATTACH_MOVE to *end*TREE_EDIT--><path d="M573.517,719.9317 C557.542,733.6621 542.372,746.7006 532.582,755.1154 " fill="none" id="TE_ATTACH_MOVE-*end*TREE_EDIT" style="stroke: #A80036; stroke-width: 1.0;"/><polygon fill="#A80036" points="528.729,758.4271,538.1613,755.5929,532.5204,755.1675,532.9459,749.5267,528.729,758.4271" style="stroke: #A80036; stroke-width: 1.0;"/><!--link TE_ATTACH_MOVE to TE_ATTACH_MOVE--><path d="M773.319,644.2796 C784.219,647.5846 791,652.7046 791,659.6406 C791,665.4926 786.172,670.0516 778.116,673.3196 " fill="none" id="TE_ATTACH_MOVE-TE_ATTACH_MOVE" style="stroke: #A80036; stroke-width: 1.0;"/><polygon fill="#A80036" points="773.319,675.0016,783.1355,675.7987,778.0374,673.3474,780.4888,668.2493,773.319,675.0016" style="stroke: #A80036; stroke-width: 1.0;"/><!--link TE_INPUT_TEXT to *end*TREE_EDIT--><path d="M686.608,528.7226 C703.692,540.2926 722.184,552.5876 739.5,563.6406 C765.714,580.3726 784.178,572.5786 799.5,599.6406 C825.777,646.0516 834.068,679.0268 799.5,719.6406 C765.179,759.964 589.911,764.2669 536.784,764.6363 " fill="none" id="TE_INPUT_TEXT-*end*TREE_EDIT" style="stroke: #A80036; stroke-width: 1.0;"/><polygon fill="#A80036" points="531.476,764.6626,540.4953,768.6189,536.4759,764.6383,540.4565,760.619,531.476,764.6626" style="stroke: #A80036; stroke-width: 1.0;"/><!--link TE_PLUGIN_UI to TE_PLUGIN_UI--><path d="M966.791,463.3776 C977.615,467.2376 984.5,473.6586 984.5,482.6406 C984.5,490.2196 979.599,495.9746 971.565,499.9066 " fill="none" id="TE_PLUGIN_UI-TE_PLUGIN_UI" style="stroke: #A80036; stroke-width: 1.0;"/><polygon fill="#A80036" points="966.791,501.9036,976.6374,502.1225,971.4041,499.975,973.5516,494.7416,966.791,501.9036" style="stroke: #A80036; stroke-width: 1.0;"/><!--link TE_PLUGIN_UI to *end*TREE_EDIT--><path d="M863.6,514.6696 C871.55,565.1756 878.68,664.9976 824.5,719.6406 C783.683,760.8062 592.638,764.4935 536.839,764.6814 " fill="none" id="TE_PLUGIN_UI-*end*TREE_EDIT" style="stroke: #A80036; stroke-width: 1.0;"/><polygon fill="#A80036" points="531.58,764.6897,540.5868,768.6743,536.58,764.6812,540.5731,760.6743,531.58,764.6897" style="stroke: #A80036; stroke-width: 1.0;"/><!--link TE_IMPORT to *end*TREE_EDIT--><path d="M241.87,691.6868 C259.453,701.847 279.843,712.3772 299.5,719.6406 C374.081,747.1988 469.33,759.296 506.08,763.1643 " fill="none" id="TE_IMPORT-*end*TREE_EDIT" style="stroke: #A80036; stroke-width: 1.0;"/><polygon fill="#A80036" points="511.464,763.7156,502.9189,758.8185,506.4901,763.2056,502.1029,766.7768,511.464,763.7156" style="stroke: #A80036; stroke-width: 1.0;"/><!--link *start to OBSERVE--><path d="M1089.1,409.43 C1101.95,455.588 1154.34,669.65 1058.5,791 C1021.54,837.797 879.679,877.159 766.123,902.11 " fill="none" id="*start-OBSERVE" style="stroke: #A80036; stroke-width: 1.0;"/><polygon fill="#A80036" points="761.078,903.213,770.7249,905.1971,765.9625,902.1444,769.0152,897.3819,761.078,903.213" style="stroke: #A80036; stroke-width: 1.0;"/><!--link OBSERVE to OBSERVE--><path d="M761.2,899.357 C782.025,904.637 796,915.518 796,932 C796,947.066 784.324,957.452 766.412,963.158 " fill="none" id="OBSERVE-OBSERVE" style="stroke: #A80036; stroke-width: 1.0;"/><polygon fill="#A80036" points="761.2,964.643,770.9516,966.0239,766.0086,963.273,768.7595,958.33,761.2,964.643" style="stroke: #A80036; stroke-width: 1.0;"/><!--link OBSERVE to OB_MENU--><path d="M518.538,1013.035 C498.633,1031.785 478.522,1051.37 461.299,1068.822 " fill="none" id="OBSERVE-OB_MENU" style="stroke: #A80036; stroke-width: 1.0;"/><polygon fill="#A80036" points="457.442,1072.743,466.6041,1069.1296,460.9474,1069.1776,460.8994,1063.5209,457.442,1072.743" style="stroke: #A80036; stroke-width: 1.0;"/><!--link OB_MENU to OBSERVE--><path d="M481.102,1072.743 C500.204,1055.488 521.089,1035.834 540.583,1016.827 " fill="none" id="OB_MENU-OBSERVE" style="stroke: #A80036; stroke-width: 1.0;"/><polygon fill="#A80036" points="544.463,1013.035,535.2305,1016.4644,540.887,1016.5296,540.8218,1022.1861,544.463,1013.035" style="stroke: #A80036; stroke-width: 1.0;"/><!--link OBSERVE to CANVAS_MOVE--><path d="M627.753,1013.035 C635.751,1039.437 645.604,1067.497 654.632,1088.9223 " fill="none" id="OBSERVE-CANVAS_MOVE" style="stroke: #A80036; stroke-width: 1.0;"/><polygon fill="#A80036" points="656.665,1093.666,656.7961,1083.818,654.6953,1089.0703,649.443,1086.9695,656.665,1093.666" style="stroke: #A80036; stroke-width: 1.0;"/><!--link CANVAS_MOVE to OBSERVE--><path d="M676.67,1093.666 C672.484,1073.035 664.462,1044.958 655.384,1018.045 " fill="none" id="CANVAS_MOVE-OBSERVE" style="stroke: #A80036; stroke-width: 1.0;"/><polygon fill="#A80036" points="653.677,1013.035,652.7912,1022.8439,655.2885,1017.7682,660.3643,1020.2655,653.677,1013.035" style="stroke: #A80036; stroke-width: 1.0;"/><!--link OBSERVE to TREE_EDIT--><path d="M609.36,850.632 C607.026,834.193 604.211,815.868 601.032,796.278 " fill="none" id="OBSERVE-TREE_EDIT" style="stroke: #A80036; stroke-width: 1.0;"/><polygon fill="#A80036" points="600.216,791.271,597.716,800.7973,601.0204,796.2059,605.6118,799.5103,600.216,791.271" style="stroke: #A80036; stroke-width: 1.0;"/><!--link TREE_EDIT to OBSERVE--><path d="M576.775,791.271 C580.901,810.735 584.921,829.027 588.724,845.559 " fill="none" id="TREE_EDIT-OBSERVE" style="stroke: #A80036; stroke-width: 1.0;"/><polygon fill="#A80036" points="589.897,850.632,591.7679,840.9625,588.7712,845.7604,583.9733,842.7637,589.897,850.632" style="stroke: #A80036; stroke-width: 1.0;"/><!--link OB_MENU to TREE_EDIT--><path d="M421.172,1072.96 C428.28,1017.828 439.939,928.246 450.5,851 C452.945,833.114 455.464,814.832 458.024,796.367 " fill="none" id="OB_MENU-TREE_EDIT" style="stroke: #A80036; stroke-width: 1.0;"/><polygon fill="#A80036" points="458.747,791.154,453.5482,799.5189,458.0599,796.1066,461.4723,800.6183,458.747,791.154" style="stroke: #A80036; stroke-width: 1.0;"/><!--link CANVAS_MOVE to CANVAS_MOVE--><path d="M726.157,1093.9232 C763.183,1082.7218 800.5,1093.4141 800.5,1126 C800.5,1157.0585 766.599,1168.2277 731.362,1159.5077 " fill="none" id="CANVAS_MOVE-CANVAS_MOVE" style="stroke: #A80036; stroke-width: 1.0;"/><polygon fill="#A80036" points="726.157,1158.0768,733.7761,1164.3178,730.9784,1159.4012,735.895,1156.6035,726.157,1158.0768" style="stroke: #A80036; stroke-width: 1.0;"/><!--link TREE_EDIT to TREE_EDIT--><path d="M1023.02,338.472 C1045.13,354.09 1058,374.433 1058,399.5 C1058,423.001 1046.69,442.349 1027.06,457.545 " fill="none" id="TREE_EDIT-TREE_EDIT" style="stroke: #A80036; stroke-width: 1.0;"/><polygon fill="#A80036" points="1023.02,460.528,1032.6306,458.3746,1027.0345,457.5474,1027.8616,451.9514,1023.02,460.528" style="stroke: #A80036; stroke-width: 1.0;"/><!--
@startuml
[*] - -> OBSERVE
OBSERVE: + click on canvas
OBSERVE: + mouse scroll
OBSERVE: + home key
OBSERVE - -> OBSERVE
OBSERVE: + to OB_MENU: right click on canvas
OBSERVE - -> OB_MENU
OBSERVE: + to CANVAS_MOVE: mouse down and move
OBSERVE - -> CANVAS_MOVE
OBSERVE: + to TREE_EDIT: click on tree
OBSERVE: + to TREE_EDIT: click on expand
OBSERVE: + to TREE_EDIT: undo key
OBSERVE: + to TREE_EDIT: redo key
OBSERVE - -> TREE_EDIT

OB_MENU: + to OBSERVE: click backdrop
OB_MENU: + to OBSERVE: click item: reposition tree
OB_MENU: + to OBSERVE: esc key
OB_MENU - -> OBSERVE

OB_MENU: + to TREE_EDIT: click item: undo
OB_MENU: + to TREE_EDIT: click item: redo
OB_MENU - -> TREE_EDIT

CANVAS_MOVE: + mouse move
CANVAS_MOVE - -> CANVAS_MOVE
CANVAS_MOVE: + to OBSERVE: mouse up
CANVAS_MOVE - -> OBSERVE

state TREE_EDIT {
	TREE_EDIT: + arrow keys
	TREE_EDIT: + click on tree
	TREE_EDIT: + click expand
	TREE_EDIT: + create tree: tab, insert key
	TREE_EDIT: + create tree: enter key
	TREE_EDIT: + edit tree: backspace
	TREE_EDIT: + edit tree: home key
	TREE_EDIT: + edit tree: undo key
	TREE_EDIT: + edit tree: redo key
	TREE_EDIT: + edit tree: cut key
	TREE_EDIT: + edit tree: copy key
	TREE_EDIT: + edit tree: paste key
	TREE_EDIT - -> TREE_EDIT

	TREE_EDIT: + to OBSERVE: click canvas
	TREE_EDIT: + to OBSERVE: input text blur
	TREE_EDIT -> OBSERVE

	TREE_EDIT: + to TE_MENU: right click on tree
	[*] - -> TE_MENU
	TREE_EDIT: + to TE_CANVAS_MOVE: mouse down and move on root
	[*] - -> TE_CANVAS_MOVE
	TREE_EDIT: + to TE_ATTACH_MOVE: mouse down and move on non-root
	[*] - -> TE_ATTACH_MOVE
	TREE_EDIT: + to TE_INPUT_TEXT: !pluginBinded && double click on tree
	TREE_EDIT: + to TE_INPUT_TEXT: !pluginBinded && input text
	[*] - -> TE_INPUT_TEXT
	TREE_EDIT: + to TE_PLUGIN_UI: click bind plugin
	TREE_EDIT: + to TE_PLUGIN_UI: pluginBinded && double click
	[*] - -> TE_PLUGIN_UI

	TE_MENU: + to TREE_EDIT: esc key
	TE_MENU: + to TREE_EDIT: click backdrop
	TE_MENU: + to TREE_EDIT: create tree: click item: create child
	TE_MENU: + to TREE_EDIT: create tree: click item: create sibling
	TE_MENU: + to TREE_EDIT: edit tree: click item: delete
	TE_MENU: + to TREE_EDIT: edit tree: click item: cut
	TE_MENU: + to TREE_EDIT: edit tree: click item: copy
	TE_MENU: + to TREE_EDIT: edit tree: click item: paste
	TE_MENU - -> [*]
	TE_MENU: + to TE_IMPORT: click item: import
	TE_MENU - -> TE_IMPORT

	TE_CANVAS_MOVE: + to TREE_EDIT: mouse up
	TE_CANVAS_MOVE - -> [*]

	TE_ATTACH_MOVE: + to TREE_EDIT: mouse up on canvas
	TE_ATTACH_MOVE: + mouseup on tree: insert before
	TE_ATTACH_MOVE: + mouseup on tree: append as child
	TE_ATTACH_MOVE: + mouseup on tree: append as sibling
	TE_ATTACH_MOVE: + mouseup on tree: invalid
	TE_ATTACH_MOVE - -> [*]
	TE_ATTACH_MOVE: + to TE_ATTACH_MOVE: mouse move
	TE_ATTACH_MOVE - -> TE_ATTACH_MOVE

	TE_INPUT_TEXT: + to TREE_EDIT: esc key
	TE_INPUT_TEXT: + to TREE_EDIT: enter key
	TE_INPUT_TEXT: + to TREE_EDIT: click on canvas
	TE_INPUT_TEXT: + to TREE_EDIT: input text blur
	TE_INPUT_TEXT - -> [*]

	TE_PLUGIN_UI: operate inside PluginUI
	TE_PLUGIN_UI - -> TE_PLUGIN_UI
	TE_PLUGIN_UI: + to TREE_EDIT: click on canvas
	TE_PLUGIN_UI - -> [*]

	TE_IMPORT: + to TREE_EDIT: click ok
	TE_IMPORT: + to TREE_EDIT: click cancel
	TE_IMPORT - -> [*]
}

@enduml

PlantUML version 1.2017.15(Tue Jul 04 00:45:34 HKT 2017)
(GPL source distribution)
Java Runtime: OpenJDK Runtime Environment
JVM: OpenJDK 64-Bit Server VM
Java Version: 1.8.0_162-8u162-b12-1-b12
Operating System: Linux
OS Version: 4.15.0-1-amd64
Default Encoding: UTF-8
Language: en
Country: US
--></g></svg>